<?xml version="1.0" encoding="UTF-8"?>
<svg version="1.1" xmlns="http://www.w3.org/2000/svg" width="1000" height="500">
<path d="M0 0 C5.97305539 4.65900042 9.56385695 11.1873704 13.06958008 17.75927734 C13.7444043 18.99967773 13.7444043 18.99967773 14.43286133 20.26513672 C15.52768352 22.28007543 16.61468288 24.29881265 17.69458008 26.32177734 C18.29786133 25.83064453 18.90114258 25.33951172 19.52270508 24.83349609 C22.1289415 23.01944305 23.58754379 23.06285765 26.69458008 23.32177734 C26.28036039 28.15434039 24.23044022 30.14856953 20.69458008 33.32177734 C21.3468457 32.85126953 21.99911133 32.38076172 22.67114258 31.89599609 C35.03899989 23.08526589 35.03899989 23.08526589 38.88208008 23.63427734 C39.48020508 23.86115234 40.07833008 24.08802734 40.69458008 24.32177734 C43.61875523 24.56828363 43.61875523 24.56828363 45.56958008 23.25927734 C48.30553736 22.05223737 49.86875046 22.53682467 52.69458008 23.32177734 C52.69458008 24.64177734 52.69458008 25.96177734 52.69458008 27.32177734 C58.72924465 27.96410981 58.72924465 27.96410981 63.69458008 24.82177734 C64.35458008 23.99677734 65.01458008 23.17177734 65.69458008 22.32177734 C67.67458008 23.31177734 67.67458008 23.31177734 69.69458008 24.32177734 C68.06192702 28.96855913 68.06192702 28.96855913 66.06958008 30.88427734 C64.23376498 32.47200045 64.23376498 32.47200045 64.69458008 36.32177734 C65.58145508 35.64115234 66.46833008 34.96052734 67.38208008 34.25927734 C70.69458008 32.32177734 70.69458008 32.32177734 73.56958008 32.57177734 C74.27083008 32.81927734 74.97208008 33.06677734 75.69458008 33.32177734 C75.30680904 35.71983506 75.00723282 37.01752925 73.24145508 38.73583984 C69.82551804 41.03788437 66.63827116 43.00721365 62.69458008 44.32177734 C62.69458008 44.98177734 62.69458008 45.64177734 62.69458008 46.32177734 C64.34458008 46.32177734 65.99458008 46.32177734 67.69458008 46.32177734 C68.02458008 47.64177734 68.35458008 48.96177734 68.69458008 50.32177734 C65.18681223 51.92532836 62.55103129 52.54214598 58.69458008 52.32177734 C58.50895508 53.02302734 58.32333008 53.72427734 58.13208008 54.44677734 C56.1885103 58.3339169 53.40280422 61.04520936 49.69458008 63.32177734 C48.37458008 63.32177734 47.05458008 63.32177734 45.69458008 63.32177734 C46.02071289 63.95083984 46.3468457 64.57990234 46.68286133 65.22802734 C53.79307799 79.15482339 53.79307799 79.15482339 53.56958008 84.07177734 C53.61083008 84.81427734 53.65208008 85.55677734 53.69458008 86.32177734 C54.51958008 86.87865234 55.34458008 87.43552734 56.19458008 88.00927734 C58.69458008 90.32177734 58.69458008 90.32177734 58.92114258 92.68896484 C58.85456804 94.45575077 58.74152059 96.22152833 58.57739258 97.98193359 C58.72566054 100.94235065 59.66105579 101.30401681 61.69458008 103.32177734 C61.91723633 105.66162109 61.91723633 105.66162109 61.75708008 108.25927734 C61.53399531 112.05171839 61.94170514 113.9886591 63.69458008 117.32177734 C64.00317383 119.50537109 64.00317383 119.50537109 64.13208008 121.75927734 C64.40097092 124.82164522 64.59454726 126.16172483 66.25708008 128.82177734 C68.41693768 132.57805143 68.26119203 136.08709857 67.69458008 140.32177734 C66.35242957 143.67715362 65.23668805 145.77966937 62.69458008 148.32177734 C59.81958008 148.32177734 59.81958008 148.32177734 56.69458008 147.32177734 C54.31958008 144.25927734 54.31958008 144.25927734 52.69458008 141.32177734 C51.74387214 144.53955806 50.8204124 147.71388317 50.13989258 151.00146484 C47.64544792 162.61141098 42.52801424 174.17018886 32.69458008 181.32177734 C13.59412929 193.4975425 -10.07183862 195.16180369 -32.05541992 191.13427734 C-45.81275944 188.04386049 -56.21431166 182.7042529 -64.61791992 171.07177734 C-70.40517561 161.65522572 -73.14387334 151.05921607 -75.30541992 140.32177734 C-75.90354492 141.24990234 -76.50166992 142.17802734 -77.11791992 143.13427734 C-77.83979492 144.18615234 -78.56166992 145.23802734 -79.30541992 146.32177734 C-79.71791992 146.94052734 -80.13041992 147.55927734 -80.55541992 148.19677734 C-83.57462608 150.13769559 -86.79487694 149.494427 -90.30541992 149.32177734 C-90.72500977 150.77197266 -90.72500977 150.77197266 -91.15307617 152.25146484 C-94.90404563 164.65937788 -100.38970447 174.71128629 -111.30541992 182.32177734 C-124.3207006 189.23394668 -137.17463135 189.6084075 -151.56323242 189.51708984 C-153.12174333 189.51414331 -154.68025624 189.51210664 -156.23876953 189.51098633 C-161.96935016 189.50056965 -167.69988822 189.47264727 -173.43041992 189.44677734 C-186.25916992 189.40552734 -199.08791992 189.36427734 -212.30541992 189.32177734 C-212.30541992 149.39177734 -212.30541992 109.46177734 -212.30541992 68.32177734 C-200.09541992 68.25990234 -187.88541992 68.19802734 -175.30541992 68.13427734 C-171.48334961 68.10696533 -167.6612793 68.07965332 -163.72338867 68.05151367 C-158.97143555 68.03796387 -158.97143555 68.03796387 -156.73046875 68.03544617 C-155.20114504 68.03090951 -153.67183044 68.02050878 -152.14257812 68.00505066 C-133.9513495 67.83073754 -115.19020147 69.26315362 -101.30541992 82.32177734 C-89.74008369 94.94319105 -88.12062152 111.90530381 -87.30541992 128.32177734 C-86.1503686 125.56921551 -85.2889164 123.22069325 -84.80541992 120.25927734 C-84.30541992 117.32177734 -84.30541992 117.32177734 -83.30541992 115.38427734 C-81.88666167 112.45808845 -81.67542496 109.52848768 -81.30541992 106.32177734 C-78.83041992 105.33177734 -78.83041992 105.33177734 -76.30541992 104.32177734 C-76.63541992 103.66177734 -76.96541992 103.00177734 -77.30541992 102.32177734 C-77.70543333 98.64165402 -77.8157189 96.97284845 -75.49291992 94.00927734 C-73.30541992 92.32177734 -73.30541992 92.32177734 -70.30541992 91.32177734 C-70.11979492 89.89865234 -70.11979492 89.89865234 -69.93041992 88.44677734 C-69.30541992 85.32177734 -69.30541992 85.32177734 -67.30541992 83.32177734 C-66.31541992 83.32177734 -65.32541992 83.32177734 -64.30541992 83.32177734 C-64.18424805 82.66951172 -64.06307617 82.01724609 -63.93823242 81.34521484 C-63.01598003 76.53531392 -62.00374716 71.93152269 -60.30541992 67.32177734 C-61.45010742 66.95052734 -61.45010742 66.95052734 -62.61791992 66.57177734 C-65.30541992 65.32177734 -65.30541992 65.32177734 -66.60620117 63.37255859 C-68.8550538 60.65842611 -70.82082144 60.22694224 -74.18041992 59.25927734 C-78.29973529 58.05651985 -81.76963972 56.79363809 -85.30541992 54.32177734 C-86.11791992 52.13427734 -86.11791992 52.13427734 -86.30541992 50.32177734 C-81.37271463 48.67754225 -78.76517799 50.13562143 -74.30541992 52.32177734 C-75.06467773 51.65791016 -75.82393555 50.99404297 -76.60620117 50.31005859 C-77.61040956 49.4184717 -78.61429899 48.52652546 -79.61791992 47.63427734 C-80.60405273 46.76416016 -81.59018555 45.89404297 -82.60620117 44.99755859 C-85.09369462 42.53166422 -86.77967774 40.45802516 -88.30541992 37.32177734 C-87.99291992 35.00927734 -87.99291992 35.00927734 -87.30541992 33.32177734 C-85.98541992 33.32177734 -84.66541992 33.32177734 -83.30541992 33.32177734 C-81.55541992 35.82177734 -81.55541992 35.82177734 -80.30541992 38.32177734 C-79.97541992 37.22865234 -79.64541992 36.13552734 -79.30541992 35.00927734 C-77.81926066 31.53694261 -77.44310801 31.38112566 -73.68041992 29.75927734 C-72.98303711 29.55689453 -72.2856543 29.35451172 -71.56713867 29.14599609 C-68.05451413 27.86592048 -65.26852326 25.64833203 -62.28588867 23.43115234 C-61.63233398 23.06505859 -60.9787793 22.69896484 -60.30541992 22.32177734 C-59.31541992 22.65177734 -58.32541992 22.98177734 -57.30541992 23.32177734 C-56.97541992 24.31177734 -56.64541992 25.30177734 -56.30541992 26.32177734 C-55.58354492 25.99177734 -54.86166992 25.66177734 -54.11791992 25.32177734 C-51.28844566 24.31574205 -49.27646526 24.15200332 -46.30541992 24.32177734 C-46.22291992 24.94052734 -46.14041992 25.55927734 -46.05541992 26.19677734 C-45.49934083 28.49559196 -45.49934083 28.49559196 -43.30541992 29.50927734 C-42.64541992 29.77740234 -41.98541992 30.04552734 -41.30541992 30.32177734 C-40.97541992 30.65177734 -40.64541992 30.98177734 -40.30541992 31.32177734 C-40.0234375 30.59063721 -39.74145508 29.85949707 -39.45092773 29.10620117 C-38.16159378 25.77858969 -36.85866834 22.45646256 -35.55541992 19.13427734 C-35.11198242 17.98378906 -34.66854492 16.83330078 -34.21166992 15.64794922 C-33.77338867 14.53613281 -33.33510742 13.42431641 -32.88354492 12.27880859 C-32.48554688 11.25762939 -32.08754883 10.2364502 -31.67749023 9.18432617 C-28.74251087 3.06108187 -25.19437467 0.26625472 -19.30541992 -2.67822266 C-12.97395415 -4.72853438 -5.5146833 -3.73416163 0 0 Z M-62.30541992 29.32177734 C-62.30541992 30.31177734 -62.30541992 31.30177734 -62.30541992 32.32177734 C-61.64541992 31.33177734 -60.98541992 30.34177734 -60.30541992 29.32177734 C-60.96541992 29.32177734 -61.62541992 29.32177734 -62.30541992 29.32177734 Z M-55.30541992 32.32177734 C-55.63541992 32.98177734 -55.96541992 33.64177734 -56.30541992 34.32177734 C-53.47390019 34.73986935 -53.47390019 34.73986935 -50.30541992 34.32177734 C-47.90135608 31.94335157 -47.90135608 31.94335157 -46.30541992 29.32177734 C-50.03662481 29.32177734 -52.08597681 30.50209211 -55.30541992 32.32177734 Z M30.69458008 33.32177734 C33.16724773 32.97732854 33.16724773 32.97732854 35.69458008 32.32177734 C36.02458008 31.66177734 36.35458008 31.00177734 36.69458008 30.32177734 C33.9323473 30.32177734 32.80176554 31.63602898 30.69458008 33.32177734 Z M-167.30541992 108.32177734 C-167.30541992 123.50177734 -167.30541992 138.68177734 -167.30541992 154.32177734 C-151.56918912 155.42583034 -151.56918912 155.42583034 -139.43041992 148.57177734 C-135.69571263 142.85987207 -134.93820701 137.10109235 -134.99291992 130.38427734 C-134.99710938 129.68206055 -135.00129883 128.97984375 -135.00561523 128.25634766 C-135.14795299 121.73606687 -136.14728791 117.25067079 -140.05541992 111.94677734 C-147.99676929 106.21135836 -158.10357399 108.32177734 -167.30541992 108.32177734 Z M-25.55541992 114.57177734 C-30.5029971 122.34654149 -30.28465618 132.32292666 -28.84057617 141.16943359 C-27.41284594 146.77052913 -25.37026913 151.24669033 -20.30541992 154.32177734 C-14.39142364 156.66524866 -9.18250672 156.81843513 -3.27807617 154.42333984 C2.00612363 151.47255897 4.53425654 146.61270038 6.19067383 141.00927734 C7.77554125 132.55665108 7.84336869 123.05959738 3.69458008 115.32177734 C0.27522802 111.20101974 -2.73828765 108.62926115 -8.11010742 107.98583984 C-16.00250929 107.88542761 -19.87143082 108.88778825 -25.55541992 114.57177734 Z M51.69458008 128.32177734 C52.69458008 131.32177734 52.69458008 131.32177734 52.69458008 131.32177734 Z " fill="#F15A24" transform="translate(490.305419921875,120.67822265625)"/>
<path d="M0 0 C17.4178125 -0.061875 17.4178125 -0.061875 35.1875 -0.125 C38.8280542 -0.14320801 42.4686084 -0.16141602 46.21948242 -0.18017578 C50.7310791 -0.18920898 50.7310791 -0.18920898 52.85591125 -0.19088745 C54.31201914 -0.19392025 55.76812262 -0.2008726 57.22419739 -0.21115112 C74.49302084 -0.326755 92.86366441 0.90987814 107 12 C116.64815473 21.64815473 120.9468975 33.77500387 121.23046875 47.296875 C121.22865609 49.11463886 121.21402802 50.93242882 121.1875 52.75 C121.1774292 53.71301025 121.1673584 54.67602051 121.15698242 55.66821289 C121.11904588 58.4459594 121.06165983 61.22269476 121 64 C120.98694824 65.05453369 120.98694824 65.05453369 120.97363281 66.13037109 C120.75050555 80.95294611 116.07484559 94.78433737 106.23046875 106.01953125 C92.80100784 118.99663137 74.92151786 119.31328609 57.421875 119.1953125 C55.94482576 119.19236369 54.46777441 119.19032843 52.99072266 119.18920898 C47.5771161 119.17881872 42.16355459 119.15089669 36.75 119.125 C18.55875 119.063125 18.55875 119.063125 0 119 C0 79.73 0 40.46 0 0 Z M44 39 C44 54.18 44 69.36 44 85 C59.7362308 86.104053 59.7362308 86.104053 71.875 79.25 C75.6097073 73.53809472 76.36721292 67.77931501 76.3125 61.0625 C76.30831055 60.3602832 76.30412109 59.65806641 76.29980469 58.93457031 C76.15746693 52.41428953 75.15813201 47.92889344 71.25 42.625 C63.30865063 36.88958101 53.20184593 39 44 39 Z " fill="#F15A24" transform="translate(279,190)"/>
<path d="M0 0 C15.84 0 31.68 0 48 0 C48.01417969 6.00574219 48.02835938 12.01148438 48.04296875 18.19921875 C48.06302646 22.00461616 48.08454434 25.8098929 48.11132812 29.61523438 C48.15369898 35.65491454 48.19066855 41.6942889 48.19555664 47.73413086 C48.19983601 52.6038283 48.22826874 57.47284131 48.27343178 62.34232521 C48.28641834 64.19980698 48.29071036 66.05737062 48.28615379 67.9148922 C48.28125592 70.51782444 48.30730205 73.11875002 48.34057617 75.72143555 C48.32763771 76.87266403 48.32763771 76.87266403 48.31443787 78.04714966 C48.39874666 81.98292081 48.85710524 83.81696113 51.30683899 86.95491028 C54.78254567 89.59423707 57.73372097 90.25810229 62 90 C65.22215098 89.41321851 68.2110055 88.74746129 71 87 C73.25794866 82.74676944 73.30527241 78.61060667 73.31884766 73.9050293 C73.32889328 73.10450638 73.3389389 72.30398346 73.34928894 71.47920227 C73.38007659 68.84421478 73.39714371 66.20932871 73.4140625 63.57421875 C73.43277771 61.74289582 73.45235139 59.91158147 73.4727478 58.08027649 C73.52403772 53.26843331 73.56368028 48.45656219 73.60089111 43.64459229 C73.64799792 37.86667386 73.70958234 32.08889378 73.76873779 26.31108856 C73.85691179 17.54078164 73.92670353 8.77050073 74 0 C89.51 0 105.02 0 121 0 C121.12032643 22.55897698 121.12032643 22.55897698 121.14648438 32.21484375 C121.16438034 38.78962517 121.18549476 45.3642806 121.22631836 51.93896484 C121.259043 57.24281821 121.27688062 62.54653636 121.28463173 67.85048294 C121.29015177 69.86856844 121.30093081 71.88664699 121.31719017 73.90467453 C121.33913874 76.74308709 121.34195968 79.5809491 121.34057617 82.41943359 C121.351362 83.24374878 121.36214783 84.06806396 121.3732605 84.9173584 C121.32223836 94.664643 118.47326661 103.62157323 112 111 C98.37673573 123.48799224 78.3296023 124.39428764 60.75 124.3125 C58.85809937 124.30512817 58.85809937 124.30512817 56.92797852 124.29760742 C39.88815564 124.08495043 21.79696318 122.67747985 8.90625 110.23046875 C-1.4281842 98.13833365 -0.27923055 82.69913398 -0.1953125 67.7734375 C-0.19157689 65.8147496 -0.18873251 63.85605983 -0.18673706 61.89736938 C-0.17914375 56.77149184 -0.15953271 51.64572976 -0.1373291 46.51989746 C-0.11315663 40.35400274 -0.10406919 34.18806916 -0.09242249 28.0221405 C-0.07310543 18.68134699 -0.0347529 9.34080623 0 0 Z " fill="#F15A24" transform="translate(137,189)"/>
<path d="M0 0 C32.67 0 65.34 0 99 0 C99 11.88 99 23.76 99 36 C82.17 36 65.34 36 48 36 C48 39.63 48 43.26 48 47 C64.83 47 81.66 47 99 47 C99 56.9 99 66.8 99 77 C82.17 77 65.34 77 48 77 C48 80.63 48 84.26 48 88 C64.83 88 81.66 88 99 88 C99 98.89 99 109.78 99 121 C66.33 121 33.66 121 0 121 C0 81.07 0 41.14 0 0 Z " fill="#F68E1E" transform="translate(888,189)"/>
<path d="M0 0 C32.67 0 65.34 0 99 0 C99 13.2 99 26.4 99 40 C81.84 40 64.68 40 47 40 C47 43.63 47 47.26 47 51 C64.16 51 81.32 51 99 51 C99 62.55 99 74.1 99 86 C81.84 86 64.68 86 47 86 C47 97.55 47 109.1 47 121 C31.49 121 15.98 121 0 121 C0 81.07 0 41.14 0 0 Z " fill="#F6921E" transform="translate(586,189)"/>
<path d="M0 0 C36.3 0 72.6 0 110 0 C110 13.53 110 27.06 110 41 C99.77 41 89.54 41 79 41 C79 67.4 79 93.8 79 121 C63.16 121 47.32 121 31 121 C31 94.6 31 68.2 31 41 C20.77 41 10.54 41 0 41 C0 27.47 0 13.94 0 0 Z " fill="#F16025" transform="translate(14,189)"/>
<path d="M0 0 C15.84 0 31.68 0 48 0 C48 27.72 48 55.44 48 84 C63.51 84 79.02 84 95 84 C95 96.21 95 108.42 95 121 C63.65 121 32.3 121 0 121 C0 81.07 0 41.14 0 0 Z " fill="#F68E1E" transform="translate(780,189)"/>
<path d="M0 0 C5.97305539 4.65900042 9.56385695 11.1873704 13.06958008 17.75927734 C13.51946289 18.58621094 13.9693457 19.41314453 14.43286133 20.26513672 C15.52768352 22.28007543 16.61468288 24.29881265 17.69458008 26.32177734 C18.29786133 25.83064453 18.90114258 25.33951172 19.52270508 24.83349609 C22.1289415 23.01944305 23.58754379 23.06285765 26.69458008 23.32177734 C26.28036039 28.15434039 24.23044022 30.14856953 20.69458008 33.32177734 C21.3468457 32.85126953 21.99911133 32.38076172 22.67114258 31.89599609 C35.03899989 23.08526589 35.03899989 23.08526589 38.88208008 23.63427734 C39.77926758 23.97458984 39.77926758 23.97458984 40.69458008 24.32177734 C43.61875523 24.56828363 43.61875523 24.56828363 45.56958008 23.25927734 C48.30553736 22.05223737 49.86875046 22.53682467 52.69458008 23.32177734 C52.69458008 24.64177734 52.69458008 25.96177734 52.69458008 27.32177734 C58.72924465 27.96410981 58.72924465 27.96410981 63.69458008 24.82177734 C64.35458008 23.99677734 65.01458008 23.17177734 65.69458008 22.32177734 C67.67458008 23.31177734 67.67458008 23.31177734 69.69458008 24.32177734 C68.06192702 28.96855913 68.06192702 28.96855913 66.06958008 30.88427734 C64.23376498 32.47200045 64.23376498 32.47200045 64.69458008 36.32177734 C66.02489258 35.30083984 66.02489258 35.30083984 67.38208008 34.25927734 C70.69458008 32.32177734 70.69458008 32.32177734 73.56958008 32.57177734 C74.27083008 32.81927734 74.97208008 33.06677734 75.69458008 33.32177734 C75.30680904 35.71983506 75.00723282 37.01752925 73.24145508 38.73583984 C69.82551804 41.03788437 66.63827116 43.00721365 62.69458008 44.32177734 C62.69458008 44.98177734 62.69458008 45.64177734 62.69458008 46.32177734 C64.34458008 46.32177734 65.99458008 46.32177734 67.69458008 46.32177734 C68.02458008 47.64177734 68.35458008 48.96177734 68.69458008 50.32177734 C65.18681223 51.92532836 62.55103129 52.54214598 58.69458008 52.32177734 C58.69458008 51.33177734 58.69458008 50.34177734 58.69458008 49.32177734 C56.3895113 50.21539727 56.3895113 50.21539727 55.38208008 53.13427734 C53.47937043 56.72828446 52.15936582 58.21277733 48.69458008 60.32177734 C42.4042877 62.22671783 35.89356861 62.8471707 29.37036133 63.37646484 C27.88878288 63.50044144 27.88878288 63.50044144 26.37727356 63.62692261 C15.08270777 64.52178643 3.77152369 64.94889843 -7.55029297 65.32714844 C-11.13236261 65.44726163 -14.71397856 65.57720622 -18.2956543 65.70849609 C-24.96477988 65.94740352 -31.63440733 66.14429058 -38.30541992 66.32177734 C-39.700961 66.36377258 -39.700961 66.36377258 -41.12469482 66.40661621 C-43.6055368 66.47649585 -46.08564878 66.52467763 -48.56713867 66.56396484 C-49.61041069 66.59673019 -49.61041069 66.59673019 -50.67475891 66.63015747 C-55.66707495 66.66914934 -58.96793988 65.63091998 -63.30541992 63.32177734 C-63.96541992 62.33177734 -64.62541992 61.34177734 -65.30541992 60.32177734 C-67.39956742 59.92412329 -67.39956742 59.92412329 -69.80541992 59.94677734 C-75.55963093 59.53636055 -80.65596594 57.80651962 -85.30541992 54.32177734 C-86.08276367 52.15380859 -86.08276367 52.15380859 -86.30541992 50.32177734 C-81.37271463 48.67754225 -78.76517799 50.13562143 -74.30541992 52.32177734 C-75.06467773 51.65791016 -75.82393555 50.99404297 -76.60620117 50.31005859 C-77.61040956 49.4184717 -78.61429899 48.52652546 -79.61791992 47.63427734 C-80.60405273 46.76416016 -81.59018555 45.89404297 -82.60620117 44.99755859 C-85.09369462 42.53166422 -86.77967774 40.45802516 -88.30541992 37.32177734 C-87.99291992 35.00927734 -87.99291992 35.00927734 -87.30541992 33.32177734 C-85.98541992 33.32177734 -84.66541992 33.32177734 -83.30541992 33.32177734 C-81.55541992 35.82177734 -81.55541992 35.82177734 -80.30541992 38.32177734 C-79.97541992 37.22865234 -79.64541992 36.13552734 -79.30541992 35.00927734 C-77.81926066 31.53694261 -77.44310801 31.38112566 -73.68041992 29.75927734 C-72.98303711 29.55689453 -72.2856543 29.35451172 -71.56713867 29.14599609 C-68.05451413 27.86592048 -65.26852326 25.64833203 -62.28588867 23.43115234 C-61.30555664 22.88201172 -61.30555664 22.88201172 -60.30541992 22.32177734 C-59.31541992 22.65177734 -58.32541992 22.98177734 -57.30541992 23.32177734 C-56.97541992 24.31177734 -56.64541992 25.30177734 -56.30541992 26.32177734 C-55.58354492 25.99177734 -54.86166992 25.66177734 -54.11791992 25.32177734 C-51.28844566 24.31574205 -49.27646526 24.15200332 -46.30541992 24.32177734 C-46.22291992 24.94052734 -46.14041992 25.55927734 -46.05541992 26.19677734 C-45.49934083 28.49559196 -45.49934083 28.49559196 -43.30541992 29.50927734 C-42.64541992 29.77740234 -41.98541992 30.04552734 -41.30541992 30.32177734 C-40.97541992 30.65177734 -40.64541992 30.98177734 -40.30541992 31.32177734 C-40.0234375 30.59063721 -39.74145508 29.85949707 -39.45092773 29.10620117 C-38.16159378 25.77858969 -36.85866834 22.45646256 -35.55541992 19.13427734 C-35.11198242 17.98378906 -34.66854492 16.83330078 -34.21166992 15.64794922 C-33.77338867 14.53613281 -33.33510742 13.42431641 -32.88354492 12.27880859 C-32.48554688 11.25762939 -32.08754883 10.2364502 -31.67749023 9.18432617 C-28.74251087 3.06108187 -25.19437467 0.26625472 -19.30541992 -2.67822266 C-12.97395415 -4.72853438 -5.5146833 -3.73416163 0 0 Z M-62.30541992 29.32177734 C-62.30541992 30.31177734 -62.30541992 31.30177734 -62.30541992 32.32177734 C-61.64541992 31.33177734 -60.98541992 30.34177734 -60.30541992 29.32177734 C-60.96541992 29.32177734 -61.62541992 29.32177734 -62.30541992 29.32177734 Z M-55.30541992 32.32177734 C-55.63541992 32.98177734 -55.96541992 33.64177734 -56.30541992 34.32177734 C-53.47390019 34.73986935 -53.47390019 34.73986935 -50.30541992 34.32177734 C-47.90135608 31.94335157 -47.90135608 31.94335157 -46.30541992 29.32177734 C-50.03662481 29.32177734 -52.08597681 30.50209211 -55.30541992 32.32177734 Z M30.69458008 33.32177734 C33.16724773 32.97732854 33.16724773 32.97732854 35.69458008 32.32177734 C36.02458008 31.66177734 36.35458008 31.00177734 36.69458008 30.32177734 C33.9323473 30.32177734 32.80176554 31.63602898 30.69458008 33.32177734 Z " fill="#E2A81A" transform="translate(490.305419921875,120.67822265625)"/>
<path d="M0 0 C15.84 0 31.68 0 48 0 C48 39.93 48 79.86 48 121 C32.16 121 16.32 121 0 121 C0 81.07 0 41.14 0 0 Z " fill="#F68E1E" transform="translate(709,189)"/>
<path d="M0 0 C2.28291364 2.22283697 2.88455741 3.16266061 4 6 C4.36867188 6.88171875 4.73734375 7.7634375 5.1171875 8.671875 C8.01596423 16.06875354 8.01596423 16.06875354 7.953125 19.734375 C7.96859375 20.48203125 7.9840625 21.2296875 8 22 C8.825 22.556875 9.65 23.11375 10.5 23.6875 C13 26 13 26 13.2265625 28.3671875 C13.15998796 30.13397343 13.04694051 31.89975099 12.8828125 33.66015625 C13.03108047 36.62057331 13.96647571 36.98223947 16 39 C16.22265625 41.33984375 16.22265625 41.33984375 16.0625 43.9375 C15.83941523 47.72994105 16.24712507 49.66688175 18 53 C18.30859375 55.18359375 18.30859375 55.18359375 18.4375 57.4375 C18.70639084 60.49986788 18.89996718 61.83994749 20.5625 64.5 C22.7223576 68.25627409 22.56661195 71.76532122 22 76 C20.65784949 79.35537627 19.54210798 81.45789202 17 84 C14.125 84 14.125 84 11 83 C8.625 79.9375 8.625 79.9375 7 77 C6.04929206 80.21778072 5.12583232 83.39210583 4.4453125 86.6796875 C1.95086784 98.28963364 -3.16656584 109.84841152 -13 117 C-32.10045079 129.17576516 -55.7664187 130.84002635 -77.75 126.8125 C-91.50733952 123.72208315 -101.90889174 118.38247556 -110.3125 106.75 C-116.09975568 97.33344838 -118.83845342 86.73743872 -121 76 C-121.598125 76.928125 -122.19625 77.85625 -122.8125 78.8125 C-123.534375 79.864375 -124.25625 80.91625 -125 82 C-125.4125 82.61875 -125.825 83.2375 -126.25 83.875 C-129.26920616 85.81591825 -132.48945702 85.17264965 -136 85 C-136.41958984 86.45019531 -136.41958984 86.45019531 -136.84765625 87.9296875 C-140.59862571 100.33760054 -146.08428455 110.38950895 -157 118 C-170.01528068 124.91216933 -182.86921143 125.28663016 -197.2578125 125.1953125 C-198.81632341 125.19236597 -200.37483631 125.19032929 -201.93334961 125.18920898 C-207.66393024 125.17879231 -213.39446829 125.15086992 -219.125 125.125 C-231.95375 125.08375 -244.7825 125.0425 -258 125 C-258 85.07 -258 45.14 -258 4 C-245.79 3.938125 -233.58 3.87625 -221 3.8125 C-217.17792969 3.78518799 -213.35585938 3.75787598 -209.41796875 3.72973633 C-204.66601562 3.71618652 -204.66601562 3.71618652 -202.42504883 3.71366882 C-200.89572512 3.70913216 -199.36641051 3.69873144 -197.8371582 3.68327332 C-179.64592958 3.50896019 -160.88478155 4.94137628 -147 18 C-135.43466376 30.62141371 -133.8152016 47.58352646 -133 64 C-131.84494867 61.24743817 -130.98349647 58.8989159 -130.5 55.9375 C-130 53 -130 53 -129 51.0625 C-127.58124175 48.13631111 -127.37000504 45.20671034 -127 42 C-125.35 41.34 -123.7 40.68 -122 40 C-122.33 39.34 -122.66 38.68 -123 38 C-123.4000134 34.31987667 -123.51029897 32.6510711 -121.1875 29.6875 C-119 28 -119 28 -116 27 C-115.814375 25.576875 -115.814375 25.576875 -115.625 24.125 C-115 21 -115 21 -113 19 C-112.01 19 -111.02 19 -110 19 C-109.87882813 18.33613281 -109.75765625 17.67226562 -109.6328125 16.98828125 C-109.38144531 15.66376953 -109.38144531 15.66376953 -109.125 14.3125 C-108.88136719 13.00732422 -108.88136719 13.00732422 -108.6328125 11.67578125 C-108 9 -108 9 -106 4 C-90.82 4 -75.64 4 -60 4 C-70.60638166 14.60638166 -87.99248989 21.2696317 -103.125 21.3125 C-104.40375 21.209375 -105.6825 21.10625 -107 21 C-107 21.99 -107 22.98 -107 24 C-104.69 24 -102.38 24 -100 24 C-99.63573287 30.43538595 -99.63573287 30.43538595 -101.25 32.9375 C-103 34 -103 34 -107 34 C-106.9175 34.9075 -106.835 35.815 -106.75 36.75 C-107 40 -107 40 -108.875 42.375 C-111 44 -111 44 -113 44 C-112.67 44.66 -112.34 45.32 -112 46 C-111.53094463 51.39413681 -111.53094463 51.39413681 -113.5 53.9375 C-115.34922695 56.0551411 -115.34922695 56.0551411 -115 59.5625 C-115 63 -115 63 -116.4765625 64.484375 C-116.97929687 64.98453125 -117.48203125 65.4846875 -118 66 C-119.51023288 80.85062331 -114.61769694 96.86780542 -105.84375 108.74609375 C-103.17694919 112.00614474 -100.47214165 114.6160347 -97 117 C-96.36449219 117.43957031 -95.72898437 117.87914062 -95.07421875 118.33203125 C-78.56480961 128.03827357 -53.20912709 128.51984271 -35 124 C-22.24967773 120.29041146 -12.03550893 115.31040348 -4.56640625 103.85546875 C2.15620569 91.60053277 5.68487316 75.9993138 4 62 C3.34 61.01 2.68 60.02 2 59 C1.83984375 56.7734375 1.83984375 56.7734375 1.9375 54.375 C1.99174253 52.91752688 2.02033542 51.45834036 2 50 C1.67 49.67 1.34 49.34 1 49 C0.95753357 46.32461486 0.95080541 43.67290614 1 41 C1.22145461 38.87283661 1.22145461 38.87283661 -0.5 37.3125 C-2.55001095 34.15206646 -2.21269413 31.68669833 -2 28 C-2.61875 27.896875 -3.2375 27.79375 -3.875 27.6875 C-6 27 -6 27 -8 24 C-8 22.68 -8 21.36 -8 20 C-5.69 20 -3.38 20 -1 20 C-1 19.01 -1 18.02 -1 17 C-1.825 17.03480469 -2.65 17.06960937 -3.5 17.10546875 C-17.41911686 17.43169805 -31.10625207 15.90487994 -43 8 C-44.68350388 6.35034239 -46.35225962 4.68538043 -48 3 C-42.77173303 2.56756965 -37.54306203 2.14053454 -32.31396484 1.71826172 C-30.53910749 1.57419758 -28.76436431 1.42871889 -26.98974609 1.28173828 C-6.6277443 -0.40268168 -6.6277443 -0.40268168 0 0 Z M-257 5 C-257 44.27 -257 83.54 -257 124 C-244.934375 124.061875 -232.86875 124.12375 -220.4375 124.1875 C-216.65853271 124.21481201 -212.87956543 124.24212402 -208.98608398 124.27026367 C-205.53351998 124.2803104 -205.53351998 124.2803104 -202.08094788 124.28633118 C-200.56907993 124.29087226 -199.0572213 124.30128289 -197.54542542 124.31672668 C-179.92336758 124.4874012 -163.35874822 122.72251883 -149.84375 110.09375 C-139.61474885 98.47776564 -136.32861048 84.06815962 -136 69 C-135.97421875 68.15663086 -135.9484375 67.31326172 -135.921875 66.44433594 C-135.43830355 49.33195133 -135.85112145 31.8779528 -148.23828125 18.5859375 C-154.05394742 13.35054844 -160.70207899 10.53547258 -168.0625 8.1875 C-169.03485596 7.8769165 -169.03485596 7.8769165 -170.02685547 7.56005859 C-180.35821333 4.48268801 -190.96431556 4.86522676 -201.62890625 4.90234375 C-203.04943808 4.90381696 -204.46997045 4.90483533 -205.89050293 4.90539551 C-211.11451032 4.91060445 -216.33850603 4.92456564 -221.5625 4.9375 C-233.256875 4.958125 -244.95125 4.97875 -257 5 Z M6 64 C7 67 7 67 7 67 Z " fill="#FAA939" transform="translate(536,185)"/>
<path d="M0 0 C5.87272136 4.58544522 9.62164039 11.0999232 13.1940918 17.51025391 C13.66073242 18.30367187 14.12737305 19.09708984 14.6081543 19.91455078 C15.03870117 20.6821875 15.46924805 21.44982422 15.9128418 22.24072266 C16.30407227 22.92932373 16.69530273 23.6179248 17.09838867 24.32739258 C17.6940918 26.32275391 17.6940918 26.32275391 16.87280273 28.45776367 C16.48382813 29.07321045 16.09485352 29.68865723 15.6940918 30.32275391 C15.33831055 30.95697266 14.9825293 31.59119141 14.6159668 32.24462891 C13.41238268 34.12222013 12.28629405 35.75644112 10.6940918 37.32275391 C7.3815918 37.76025391 7.3815918 37.76025391 4.6940918 37.32275391 C6.31748985 35.61391385 7.98728233 33.94828674 9.6940918 32.32275391 C10.3540918 32.32275391 11.0140918 32.32275391 11.6940918 32.32275391 C11.6940918 31.00275391 11.6940918 29.68275391 11.6940918 28.32275391 C8.75317592 28.50690823 8.75317592 28.50690823 5.6940918 29.32275391 C4.62692476 31.1220797 4.62692476 31.1220797 3.6940918 33.32275391 C1.81042424 35.25584714 -0.10996876 36.70941064 -2.3059082 38.32275391 C-3.2959082 38.32275391 -4.2859082 38.32275391 -5.3059082 38.32275391 C-5.3059082 37.33275391 -5.3059082 36.34275391 -5.3059082 35.32275391 C-3.3259082 34.66275391 -1.3459082 34.00275391 0.6940918 33.32275391 C0.6940918 32.00275391 0.6940918 30.68275391 0.6940918 29.32275391 C-5.53728846 31.2905582 -9.61239681 33.79058197 -14.3059082 38.32275391 C-14.9659082 37.99275391 -15.6259082 37.66275391 -16.3059082 37.32275391 C-15.3159082 36.39462891 -15.3159082 36.39462891 -14.3059082 35.44775391 C-12.0774533 33.56637964 -12.0774533 33.56637964 -12.3059082 31.32275391 C-14.63482722 31.3672781 -14.63482722 31.3672781 -17.3059082 32.32275391 C-18.1309082 33.33337891 -18.9559082 34.34400391 -19.8059082 35.38525391 C-22.3059082 38.32275391 -22.3059082 38.32275391 -25.1184082 38.69775391 C-26.2012207 38.51212891 -26.2012207 38.51212891 -27.3059082 38.32275391 C-24.84546623 34.98358266 -23.00566253 33.1088422 -19.3059082 31.32275391 C-18.9759082 30.33275391 -18.6459082 29.34275391 -18.3059082 28.32275391 C-24.6275315 29.81019468 -28.5765949 31.72878394 -32.3059082 37.32275391 C-35.4309082 37.51025391 -35.4309082 37.51025391 -38.3059082 37.32275391 C-34.5559082 33.44775391 -34.5559082 33.44775391 -32.3059082 32.32275391 C-31.9759082 31.33275391 -31.6459082 30.34275391 -31.3059082 29.32275391 C-33.9459082 29.98275391 -36.5859082 30.64275391 -39.3059082 31.32275391 C-38.69211447 25.68867712 -36.69338037 20.92280201 -34.4934082 15.76025391 C-34.14987305 14.92300781 -33.80633789 14.08576172 -33.45239258 13.22314453 C-30.182054 5.47373059 -26.85096205 1.09528083 -19.3059082 -2.67724609 C-12.97299035 -4.72802805 -5.51734176 -3.73132638 0 0 Z " fill="#AE6C49" transform="translate(490.305908203125,120.67724609375)"/>
<path d="M0 0 C2.28291364 2.22283697 2.88455741 3.16266061 4 6 C4.36867188 6.88171875 4.73734375 7.7634375 5.1171875 8.671875 C8.01596423 16.06875354 8.01596423 16.06875354 7.953125 19.734375 C7.96859375 20.48203125 7.9840625 21.2296875 8 22 C8.825 22.556875 9.65 23.11375 10.5 23.6875 C13 26 13 26 13.2265625 28.3671875 C13.15998796 30.13397343 13.04694051 31.89975099 12.8828125 33.66015625 C13.03108047 36.62057331 13.96647571 36.98223947 16 39 C16.22265625 41.33984375 16.22265625 41.33984375 16.0625 43.9375 C15.8164478 47.64737127 15.8164478 47.64737127 17.05859375 51.06640625 C18 53 18 53 17.90234375 55.15234375 C17 57 17 57 15.00390625 57.94140625 C14.19824219 58.14636719 13.39257812 58.35132813 12.5625 58.5625 C8.54053935 59.56530179 8.54053935 59.56530179 6 63 C4 61.5625 4 61.5625 2 59 C1.75202559 56.5959091 1.81103662 54.33666557 1.95703125 51.92578125 C1.97121094 51.29027344 1.98539063 50.65476563 2 50 C1.67 49.67 1.34 49.34 1 49 C0.95753357 46.32461486 0.95080541 43.67290614 1 41 C1.22145461 38.87283661 1.22145461 38.87283661 -0.5 37.3125 C-2.55001095 34.15206646 -2.21269413 31.68669833 -2 28 C-2.61875 27.896875 -3.2375 27.79375 -3.875 27.6875 C-6 27 -6 27 -8 24 C-8 22.68 -8 21.36 -8 20 C-5.69 20 -3.38 20 -1 20 C-1 19.01 -1 18.02 -1 17 C-2.2375 17.05220703 -2.2375 17.05220703 -3.5 17.10546875 C-17.41911686 17.43169805 -31.10625207 15.90487994 -43 8 C-44.68350388 6.35034239 -46.35225962 4.68538043 -48 3 C-42.77173303 2.56756965 -37.54306203 2.14053454 -32.31396484 1.71826172 C-30.53910749 1.57419758 -28.76436431 1.42871889 -26.98974609 1.28173828 C-6.6277443 -0.40268168 -6.6277443 -0.40268168 0 0 Z " fill="#E9C476" transform="translate(536,185)"/>
<path d="M0 0 C15.18 0 30.36 0 46 0 C35.39361834 10.60638166 18.00751011 17.2696317 2.875 17.3125 C1.59625 17.209375 0.3175 17.10625 -1 17 C-1 17.99 -1 18.98 -1 20 C1.31 20 3.62 20 6 20 C6.36426713 26.43538595 6.36426713 26.43538595 4.75 28.9375 C3 30 3 30 -1 30 C-0.87625 31.36125 -0.87625 31.36125 -0.75 32.75 C-1 36 -1 36 -2.875 38.375 C-5 40 -5 40 -7 40 C-6.67 40.66 -6.34 41.32 -6 42 C-5.53094463 47.39413681 -5.53094463 47.39413681 -7.5 49.9375 C-9.34922695 52.0551411 -9.34922695 52.0551411 -9 55.5625 C-9 59 -9 59 -10.375 60.9375 C-12 62 -12 62 -14 62 C-14 61.34 -14 60.68 -14 60 C-14.70125 59.9175 -15.4025 59.835 -16.125 59.75 C-19.65272947 58.82972275 -22.06111614 57.11873023 -25 55 C-24.24710425 49.47876448 -24.24710425 49.47876448 -23 47.0625 C-21.58124175 44.13631111 -21.37000504 41.20671034 -21 38 C-19.35 37.34 -17.7 36.68 -16 36 C-16.33 35.34 -16.66 34.68 -17 34 C-17.4000134 30.31987667 -17.51029897 28.6510711 -15.1875 25.6875 C-13 24 -13 24 -10 23 C-9.87625 22.05125 -9.7525 21.1025 -9.625 20.125 C-9 17 -9 17 -7 15 C-6.01 15 -5.02 15 -4 15 C-3.87882812 14.33613281 -3.75765625 13.67226562 -3.6328125 12.98828125 C-3.46523438 12.10527344 -3.29765625 11.22226563 -3.125 10.3125 C-2.96257812 9.44238281 -2.80015625 8.57226562 -2.6328125 7.67578125 C-2 5 -2 5 0 0 Z " fill="#EAC577" transform="translate(430,189)"/>
<path d="M0 0 C13.86 0 27.72 0 42 0 C35.85313175 15.36717063 35.85313175 15.36717063 30 20 C23.62105618 22.37610827 16.52627032 21.41421835 9.875 20.9375 C8.04194072 20.86214882 6.20858279 20.79372658 4.375 20.73242188 C-0.0907822 20.56812311 -4.54206999 20.31015283 -9 20 C-8.25381213 18.16511178 -7.50282451 16.33217531 -6.75 14.5 C-6.33234375 13.4790625 -5.9146875 12.458125 -5.484375 11.40625 C-3.79900499 7.53876934 -1.88668379 3.77336759 0 0 Z " fill="#F6921E" transform="translate(923,162)"/>
<path d="M0 0 C15.84 0 31.68 0 48 0 C48.01417969 6.00574219 48.02835938 12.01148438 48.04296875 18.19921875 C48.06302646 22.00461616 48.08454434 25.8098929 48.11132812 29.61523438 C48.15369898 35.65491454 48.19066855 41.6942889 48.19555664 47.73413086 C48.19983601 52.6038283 48.22826874 57.47284131 48.27343178 62.34232521 C48.28641834 64.19980698 48.29071036 66.05737062 48.28615379 67.9148922 C48.28125592 70.51782444 48.30730205 73.11875002 48.34057617 75.72143555 C48.32763771 76.87266403 48.32763771 76.87266403 48.31443787 78.04714966 C48.39874666 81.98292081 48.85710524 83.81696113 51.30683899 86.95491028 C54.78254567 89.59423707 57.73372097 90.25810229 62 90 C65.22215098 89.41321851 68.2110055 88.74746129 71 87 C73.25794866 82.74676944 73.30527241 78.61060667 73.31884766 73.9050293 C73.32889328 73.10450638 73.3389389 72.30398346 73.34928894 71.47920227 C73.38007659 68.84421478 73.39714371 66.20932871 73.4140625 63.57421875 C73.43277771 61.74289582 73.45235139 59.91158147 73.4727478 58.08027649 C73.52403772 53.26843331 73.56368028 48.45656219 73.60089111 43.64459229 C73.64799792 37.86667386 73.70958234 32.08889378 73.76873779 26.31108856 C73.85691179 17.54078164 73.92670353 8.77050073 74 0 C89.51 0 105.02 0 121 0 C121.12032643 22.55897698 121.12032643 22.55897698 121.14648438 32.21484375 C121.16438034 38.78962517 121.18549476 45.3642806 121.22631836 51.93896484 C121.259043 57.24281821 121.27688062 62.54653636 121.28463173 67.85048294 C121.29015177 69.86856844 121.30093081 71.88664699 121.31719017 73.90467453 C121.33913874 76.74308709 121.34195968 79.5809491 121.34057617 82.41943359 C121.351362 83.24374878 121.36214783 84.06806396 121.3732605 84.9173584 C121.32223836 94.664643 118.47326661 103.62157323 112 111 C98.37673573 123.48799224 78.3296023 124.39428764 60.75 124.3125 C58.85809937 124.30512817 58.85809937 124.30512817 56.92797852 124.29760742 C39.88815564 124.08495043 21.79696318 122.67747985 8.90625 110.23046875 C-1.4281842 98.13833365 -0.27923055 82.69913398 -0.1953125 67.7734375 C-0.19157689 65.8147496 -0.18873251 63.85605983 -0.18673706 61.89736938 C-0.17914375 56.77149184 -0.15953271 51.64572976 -0.1373291 46.51989746 C-0.11315663 40.35400274 -0.10406919 34.18806916 -0.09242249 28.0221405 C-0.07310543 18.68134699 -0.0347529 9.34080623 0 0 Z M2 1 C1.88352802 16.90524528 1.88352802 16.90524528 1.8046875 32.81054688 C1.78083782 39.30408919 1.75271757 45.79740445 1.69824219 52.29077148 C1.65456831 57.5298021 1.6308175 62.768589 1.62049103 68.0077877 C1.61313819 69.99994425 1.59878036 71.99208847 1.57707977 73.9841404 C1.4414121 86.96202577 1.54232984 98.67552816 10.19140625 109.22265625 C23.55745732 122.35776043 45.1028637 123.36874213 62.79858398 123.30249023 C79.25556989 122.98318223 97.82118867 121.81824199 110.31640625 109.89453125 C118.41748419 100.77846906 120.16770485 91.09909171 120.11352539 79.21899414 C120.11367142 78.36941132 120.11381744 77.51982849 120.1139679 76.64450073 C120.11327554 73.85802589 120.10551507 71.0716193 120.09765625 68.28515625 C120.09578966 66.34459978 120.09436689 64.40404283 120.09336853 62.46348572 C120.08956233 57.37212813 120.07974832 52.28079937 120.06866455 47.18945312 C120.05660447 41.07200465 120.05203916 34.95454651 120.04621124 28.83708954 C120.03653549 19.55803969 120.01736566 10.27905299 120 1 C105.15 1 90.3 1 75 1 C74.96261719 6.93355469 74.92523438 12.86710938 74.88671875 18.98046875 C74.85644149 22.74026339 74.82529525 26.50001055 74.79101562 30.25976562 C74.73669264 36.22694511 74.68558257 42.19403067 74.65356445 48.16137695 C74.6275483 52.97259059 74.58715773 57.78348879 74.53681374 62.59450722 C74.52013362 64.42966093 74.50862647 66.26486921 74.50238609 68.10008812 C74.49275744 70.67147232 74.46471339 73.24204742 74.43237305 75.81323242 C74.43452568 76.9504348 74.43452568 76.9504348 74.4367218 78.11061096 C74.35755651 82.56351528 73.78072281 85.47481698 71 89 C66.05372585 91.53345749 60.44588946 91.74141769 55 91 C51.89067561 89.67368859 49.54911921 88.09823843 48 85 C47.87756962 82.34625148 47.81431199 79.71701637 47.79467773 77.06201172 C47.78477814 76.24241974 47.77487854 75.42282776 47.76467896 74.57839966 C47.73302467 71.86219192 47.70829103 69.14596668 47.68359375 66.4296875 C47.66302761 64.5492405 47.64203123 62.66879817 47.62062073 60.7883606 C47.5653649 55.83343269 47.51597112 50.87846283 47.46777344 45.92346191 C47.40876338 39.98129169 47.34251612 34.03919834 47.27747345 28.09709167 C47.17941977 19.06477464 47.09059394 10.03240883 47 1 C32.15 1 17.3 1 2 1 Z " fill="#FAAB39" transform="translate(137,189)"/>
<path d="M0 0 C32.67 0 65.34 0 99 0 C99 13.2 99 26.4 99 40 C81.84 40 64.68 40 47 40 C47 43.63 47 47.26 47 51 C64.16 51 81.32 51 99 51 C99 62.55 99 74.1 99 86 C81.84 86 64.68 86 47 86 C47 97.55 47 109.1 47 121 C31.49 121 15.98 121 0 121 C0 81.07 0 41.14 0 0 Z M1 1 C1 40.27 1 79.54 1 120 C15.85 120 30.7 120 46 120 C46 108.45 46 96.9 46 85 C62.83 85 79.66 85 97 85 C97 74.44 97 63.88 97 53 C80.17 53 63.34 53 46 53 C46 48.38 46 43.76 46 39 C62.83 39 79.66 39 97 39 C97 26.46 97 13.92 97 1 C65.32 1 33.64 1 1 1 Z " fill="#F15D23" transform="translate(586,189)"/>
<path d="M0 0 C12.21 -0.061875 24.42 -0.12375 37 -0.1875 C40.82207031 -0.21481201 44.64414062 -0.24212402 48.58203125 -0.27026367 C53.33398438 -0.28381348 53.33398438 -0.28381348 55.57495117 -0.28633118 C57.10427488 -0.29086784 58.63358949 -0.30126856 60.1628418 -0.31672668 C78.35407042 -0.49103981 97.11521845 0.94137628 111 14 C122.41451599 26.45682146 124.35205763 42.84841832 124.30078125 59.0859375 C124 62 124 62 122 64 C121.98541748 63.43192627 121.97083496 62.86385254 121.95581055 62.27856445 C121.26543943 35.98059202 121.26543943 35.98059202 108 14 C102.4811457 9.75724442 96.51035692 7.27952757 89.9375 5.1875 C89.28934326 4.9805249 88.64118652 4.7735498 87.97338867 4.56030273 C77.68287982 1.49419327 67.00472573 1.7989 56.37109375 1.68359375 C54.95055629 1.66515313 53.53002394 1.64631458 52.10949707 1.6270752 C46.88555838 1.55907826 41.66152229 1.49873824 36.4375 1.4375 C18.8959375 1.2209375 18.8959375 1.2209375 1 1 C1 40.27 1 79.54 1 120 C13.065625 119.896875 25.13125 119.79375 37.5625 119.6875 C41.34146729 119.66260498 45.12043457 119.63770996 49.01391602 119.61206055 C52.46650559 119.575403 52.46650559 119.575403 55.91905212 119.5349884 C57.43084701 119.51906928 58.9427068 119.50862725 60.45457458 119.50288391 C75.30071361 119.43913843 89.28925887 118.52293072 102 110 C102.98226562 109.35611328 102.98226562 109.35611328 103.984375 108.69921875 C113.9335058 101.23737065 117.61478742 88.41924244 121 77 C122.60077402 80.98192537 121.3232094 84.26144167 120 88.125 C119.7721582 88.79152588 119.54431641 89.45805176 119.30957031 90.14477539 C115.43640906 100.85802215 108.2821124 110.13260788 98.109375 115.53515625 C85.78869464 120.95309646 73.98482806 121.27935729 60.7421875 121.1953125 C59.18367659 121.19236597 57.62516369 121.19032929 56.06665039 121.18920898 C50.33606976 121.17879231 44.60553171 121.15086992 38.875 121.125 C26.04625 121.08375 13.2175 121.0425 0 121 C0 81.07 0 41.14 0 0 Z " fill="#FAAB39" transform="translate(278,189)"/>
<path d="M0 0 C0.66 0 1.32 0 2 0 C2 4.79088796 1.21538266 7.35882805 -2.1875 10.8125 C-5.90188609 13.68823665 -8.81683968 14.55757939 -13.45703125 15.1328125 C-14.69751221 15.28693604 -15.93799316 15.44105957 -17.21606445 15.59985352 C-22.97204 16.20854078 -28.72428799 16.68698555 -34.5 17.0625 C-35.73250488 17.14556396 -36.96500977 17.22862793 -38.23486328 17.31420898 C-48.72794921 17.98799787 -59.21634547 18.36999721 -69.72583008 18.67382812 C-75.89518599 18.85332403 -82.03394075 19.08660713 -88.1875 19.5625 C-93.77046071 19.95939294 -99.34219365 20.20455715 -104.9375 20.3125 C-106.11058716 20.35709351 -106.11058716 20.35709351 -107.30737305 20.40258789 C-113.00689277 20.46050364 -117.22415002 19.14591109 -122 16 C-125 12.8125 -125 12.8125 -125 10 C-121.14499441 10.55071508 -119.68606223 12.31393777 -117 15 C-113.28159133 16.3893921 -109.36299657 16.14480767 -105.44921875 16.1171875 C-104.67172775 16.11411591 -103.89423676 16.11104431 -103.09318542 16.10787964 C-92.52637313 16.02844766 -81.9661604 15.64242824 -71.40698242 15.25537109 C-67.83597264 15.12585135 -64.26472283 15.00603425 -60.69335938 14.88671875 C-49.55160529 14.49662999 -38.43531143 13.98444955 -27.32421875 13.0546875 C-26.4098555 12.98049591 -25.49549225 12.90630432 -24.55342102 12.8298645 C-12.71581139 12.00994351 -12.71581139 12.00994351 -3 6 C-1.19020859 2.88337092 -1.19020859 2.88337092 0 0 Z " fill="#451A2F" transform="translate(547,170)"/>
<path d="M0 0 C2.61157509 4.17852014 2.55549346 8.21612348 2 13 C0.65784949 16.35537627 -0.45789202 18.45789202 -3 21 C-5.8125 21.125 -5.8125 21.125 -9 20 C-12.4110114 16.42951274 -14.30151596 12.64767265 -14.375 7.6875 C-14 4 -14 4 -13 1 C-4.47368421 -1.84210526 -4.47368421 -1.84210526 0 0 Z " fill="#EAC677" transform="translate(556,248)"/>
<path d="M0 0 C1.0725 0.639375 2.145 1.27875 3.25 1.9375 C5.80822182 3.40601273 8.05340886 4.52854542 11 5 C11.42273372 11.12963887 11.02168763 14.05906948 7 19 C6.566875 19.61875 6.13375 20.2375 5.6875 20.875 C2.93940904 22.70706064 0.19562441 22.1808844 -3 22 C-5.96772796 17.01803098 -5.77196418 11.62109839 -5 6 C-3.59961422 3.35536902 -2.25759811 2.0318383 0 0 Z " fill="#EAC677" transform="translate(404,248)"/>
<path d="M0 0 C5.06895198 2.9023838 7.89993899 6.7702827 9.625 12.3125 C9.94081549 15.565623 9.94957998 18.79607272 9.9375 22.0625 C9.95361328 22.9184375 9.96972656 23.774375 9.98632812 24.65625 C9.99177553 31.84681819 8.59260938 37.96027661 4.9375 44.1875 C-0.10819135 48.82408124 -6.1799237 49.96739513 -12.9140625 49.71875 C-17.17578414 49.0152277 -20.27744465 47.30274974 -23.375 44.3125 C-29.60950173 35.02399597 -29.40657845 24.10627878 -28.375 13.3125 C-26.95689396 7.98848982 -24.76495515 3.98948032 -20.25 0.75 C-13.73647608 -2.50676196 -6.71540042 -3.12461408 0 0 Z M-23.625 6.5625 C-28.57257718 14.33726414 -28.35423626 24.31364932 -26.91015625 33.16015625 C-25.48242601 38.76125179 -23.43984921 43.23741298 -18.375 46.3125 C-12.46100371 48.65597132 -7.2520868 48.80915778 -1.34765625 46.4140625 C3.93654355 43.46328162 6.46467647 38.60342304 8.12109375 33 C9.70596118 24.54737373 9.77378861 15.05032004 5.625 7.3125 C2.20564795 3.1917424 -0.80786773 0.61998381 -6.1796875 -0.0234375 C-14.07208937 -0.12384974 -17.9410109 0.8785109 -23.625 6.5625 Z " fill="#FAA738" transform="translate(488.375,228.6875)"/>
<path d="M0 0 C13.86 0 27.72 0 42 0 C35.85313175 15.36717063 35.85313175 15.36717063 30 20 C23.62105618 22.37610827 16.52627032 21.41421835 9.875 20.9375 C8.04194072 20.86214882 6.20858279 20.79372658 4.375 20.73242188 C-0.0907822 20.56812311 -4.54206999 20.31015283 -9 20 C-8.25381213 18.16511178 -7.50282451 16.33217531 -6.75 14.5 C-6.33234375 13.4790625 -5.9146875 12.458125 -5.484375 11.40625 C-3.79900499 7.53876934 -1.88668379 3.77336759 0 0 Z M1 2 C-4.40039677 10.16941117 -4.40039677 10.16941117 -7 19 C12.33755803 21.45028151 12.33755803 21.45028151 30.73730469 17.56005859 C34.94580389 13.7784647 37.20597555 9.30459056 39 4 C39 3.34 39 2.68 39 2 C26.46 2 13.92 2 1 2 Z " fill="#F16123" transform="translate(923,162)"/>
<path d="M0 0 C4.95 0 9.9 0 15 0 C0.95686962 14.04313038 -15.70696991 20.52697655 -35.6328125 21.10546875 C-36.41398437 21.07066406 -37.19515625 21.03585938 -38 21 C-38 20.01 -38 19.02 -38 18 C-37.18660156 17.91363281 -36.37320312 17.82726562 -35.53515625 17.73828125 C-21.13501892 15.97268511 -2.71490926 12.71490926 8 2 C5.36 1.67 2.72 1.34 0 1 C0 0.67 0 0.34 0 0 Z " fill="#B7764F" transform="translate(467,188)"/>
<path d="M0 0 C21 0 21 0 29 3 C34.5496248 8.69192287 34.23831785 14.05032084 34.3125 21.5625 C34.34150391 22.51447266 34.37050781 23.46644531 34.40039062 24.44726562 C34.46066159 31.25788483 33.39919629 37.01930816 30 43 C20.99236584 50.69402084 12.49275906 48 0 48 C0 32.16 0 16.32 0 0 Z M1 1 C1 16.18 1 31.36 1 47 C16.7362308 48.104053 16.7362308 48.104053 28.875 41.25 C32.6097073 35.53809472 33.36721292 29.77931501 33.3125 23.0625 C33.30831055 22.3602832 33.30412109 21.65806641 33.29980469 20.93457031 C33.15746693 14.41428953 32.15813201 9.92889344 28.25 4.625 C20.30865063 -1.11041899 10.20184593 1 1 1 Z " fill="#FAAC3A" transform="translate(322,228)"/>
<path d="M0 0 C4.44559422 -0.41924643 6.38342104 0.61851815 9.875 3.3125 C21.79860791 12.4564887 37.46493706 13.34137996 52 14 C52 14.99 52 15.98 52 17 C34.6687717 17.51820948 16.76534826 15.64989431 3 4 C1.96054781 2.69718884 0.94883652 1.37021423 0 0 Z " fill="#C17E51" transform="translate(483,188)"/>
<path d="M0 0 C1.423125 0.2784375 1.423125 0.2784375 2.875 0.5625 C5.89868793 1.28686632 5.89868793 1.28686632 8 0 C8 0.99 8 1.98 8 3 C9.32 2.67 10.64 2.34 12 2 C12 2.66 12 3.32 12 4 C13.32 4.66 14.64 5.32 16 6 C13.50935112 6.68707555 11.62113708 7 9 7 C11.475 7.99 11.475 7.99 14 9 C14 9.33 14 9.66 14 10 C13.40832031 9.97679687 12.81664062 9.95359375 12.20703125 9.9296875 C7.66198041 9.82588536 4.14059941 9.86291643 0 12 C0 11.34 0 10.68 0 10 C0.99 9.34 1.98 8.68 3 8 C1.02 8.33 -0.96 8.66 -3 9 C-2.814375 8.38125 -2.62875 7.7625 -2.4375 7.125 C-1.76313824 4.95839822 -1.76313824 4.95839822 -3 3 C-0.525 3.495 -0.525 3.495 2 4 C1.34 2.68 0.68 1.36 0 0 Z " fill="#AF6940" transform="translate(437,167)"/>
<path d="M0 0 C0.639375 0.350625 1.27875 0.70125 1.9375 1.0625 C6.1430267 2.34990613 9.71464763 1.6908847 14 1 C12.74458443 3.51083114 11.49936512 3.87125446 9 5 C12.465 4.505 12.465 4.505 16 4 C16 4.66 16 5.32 16 6 C14.68 6 13.36 6 12 6 C11.67 6.99 11.34 7.98 11 9 C9.68 8.67 8.36 8.34 7 8 C7.66 9.32 8.32 10.64 9 12 C8.2575 11.814375 7.515 11.62875 6.75 11.4375 C4.05009037 11.00796892 2.55368923 11.14877026 0 12 C0.33 11.34 0.66 10.68 1 10 C1.66 10 2.32 10 3 10 C2.34 9.34 1.68 8.68 1 8 C-1.10820797 8.3185177 -1.10820797 8.3185177 -3 9 C-2.34 8.01 -1.68 7.02 -1 6 C-1.66 5.67 -2.32 5.34 -3 5 C-2.67 4.34 -2.34 3.68 -2 3 C-0.35 3.33 1.3 3.66 3 4 C2.01 3.34 1.02 2.68 0 2 C0 1.34 0 0.68 0 0 Z " fill="#B16B3F" transform="translate(482,164)"/>
<path d="M0 0 C0.99 0.33 1.98 0.66 3 1 C6.62998725 9.74423595 8.42013564 20.546948 8 30 C7.01 30 6.02 30 5 30 C4.87939209 29.16976318 4.87939209 29.16976318 4.75634766 28.32275391 C2.70164304 14.10519411 2.70164304 14.10519411 0 0 Z " fill="#3D1031" transform="translate(479,121)"/>
<path d="M0 0 C2.79241919 0.39891703 3.8028097 0.76560398 5.65625 2.96875 C8.78229803 5.67799163 11.77914104 5.88969522 15.75 6.25 C16.44738281 6.32734375 17.14476562 6.4046875 17.86328125 6.484375 C19.57388433 6.67183835 21.28679271 6.83805503 23 7 C23 7.33 23 7.66 23 8 C25.31 8.33 27.62 8.66 30 9 C30 9.33 30 9.66 30 10 C26.99900412 10.10890711 24.00203622 10.18773555 21 10.25 C19.74123047 10.30027344 19.74123047 10.30027344 18.45703125 10.3515625 C12.43795172 10.44488156 8.03044484 9.38907727 3 6 C0 2.8125 0 2.8125 0 0 Z " fill="#512736" transform="translate(422,180)"/>
<path d="M0 0 C7.26 0.33 14.52 0.66 22 1 C22 1.99 22 2.98 22 4 C14.31604457 4.2137731 7.43659188 4.01670288 0 2 C0 1.34 0 0.68 0 0 Z " fill="#B8754D" transform="translate(513,201)"/>
<path d="M0 0 C0.66 0 1.32 0 2 0 C2 3.85232944 1.82080364 5.98525946 -0.63671875 9.0234375 C-3.92877804 12.09602617 -5.95429431 13.86928679 -10.5 14.4375 C-11.325 14.293125 -12.15 14.14875 -13 14 C-12.67 13.01 -12.34 12.02 -12 11 C-10.88625 10.525625 -9.7725 10.05125 -8.625 9.5625 C-3.66392439 7.42410534 -2.20471806 4.74862351 0 0 Z " fill="#3C112D" transform="translate(547,170)"/>
<path d="M0 0 C0 1.65 0 3.3 0 5 C-3.82989106 6.80230168 -6.78121808 7.19622241 -11 7 C-10.67 5.35 -10.34 3.7 -10 2 C-6.38026598 0.68373308 -3.90432869 0 0 0 Z " fill="#B2714C" transform="translate(554,242)"/>
<path d="M0 0 C4.12751449 0.60698743 7.3321148 2.03810791 11 4 C11 5.32 11 6.64 11 8 C2.99061767 7.22986708 2.99061767 7.22986708 0 4 C0 2.68 0 1.36 0 0 Z " fill="#B1704C" transform="translate(405,245)"/>
<path d="M0 0 C1.45922693 0.11409593 2.91740598 0.24165544 4.375 0.375 C5.59316406 0.47941406 5.59316406 0.47941406 6.8359375 0.5859375 C9 1 9 1 11 3 C7.34920174 4.61064629 3.9492568 5.44894091 0 6 C0.185625 5.38125 0.37125 4.7625 0.5625 4.125 C1.23686176 1.95839822 1.23686176 1.95839822 0 0 Z " fill="#BB7738" transform="translate(434,170)"/>
<path d="M0 0 C-2.50515784 2.50515784 -4.61068165 3.05099086 -8 4 C-9.32 4 -10.64 4 -12 4 C-12.33 3.01 -12.66 2.02 -13 1 C-8.23947038 -0.97387813 -5.03511899 -1.0070238 0 0 Z " fill="#C68957" transform="translate(464,201)"/>
<path d="M0 0 C1.64767247 0.28109113 3.29313145 0.57518526 4.9375 0.875 C5.85402344 1.03742188 6.77054687 1.19984375 7.71484375 1.3671875 C8.46894531 1.57601562 9.22304688 1.78484375 10 2 C10.33 2.66 10.66 3.32 11 4 C8.625 5.0625 8.625 5.0625 6 6 C5.34 5.67 4.68 5.34 4 5 C1.90178785 5.39938767 1.90178785 5.39938767 0 6 C0.66 5.01 1.32 4.02 2 3 C1.34 2.67 0.68 2.34 0 2 C0 1.34 0 0.68 0 0 Z " fill="#BB7738" transform="translate(479,167)"/>
<path d="M0 0 C0.66 0.33 1.32 0.66 2 1 C0.90398831 2.00893131 -0.20213918 3.00688225 -1.3125 4 C-2.23482422 4.8353125 -2.23482422 4.8353125 -3.17578125 5.6875 C-5 7 -5 7 -8 7 C-8 6.01 -8 5.02 -8 4 C-6.71349294 3.30289269 -5.42059335 2.61757124 -4.125 1.9375 C-3.40570313 1.55464844 -2.68640625 1.17179688 -1.9453125 0.77734375 C-1.30335938 0.52082031 -0.66140625 0.26429688 0 0 Z " fill="#A36930" transform="translate(493,152)"/>
<path d="M0 0 C0.66 0 1.32 0 2 0 C3.4783226 2.95664519 3.06032783 5.74229737 3 9 C2.01 9 1.02 9 0 9 C0 6.03 0 3.06 0 0 Z " fill="#471932" transform="translate(484,142)"/>
</svg>
